<mxfile host="app.diagrams.net" modified="2022-04-28T13:49:07.176Z" agent="5.0 (Macintosh; Intel Mac OS X 10_15_7) AppleWebKit/537.36 (KHTML, like Gecko) Chrome/100.0.4896.127 Safari/537.36" etag="kRncpUmgppTj2VpTBF-J" version="17.4.6" type="github">
  <diagram id="P45rB8urKtsq8m1dT5mm" name="Page-1">
    <mxGraphModel dx="1426" dy="794" grid="1" gridSize="10" guides="1" tooltips="1" connect="1" arrows="1" fold="1" page="1" pageScale="1" pageWidth="827" pageHeight="1169" math="0" shadow="0">
      <root>
        <mxCell id="0" />
        <mxCell id="1" parent="0" />
        <mxCell id="INuKn2RdXTmOjSMa2KZv-4" value="" style="edgeStyle=orthogonalEdgeStyle;rounded=0;orthogonalLoop=1;jettySize=auto;html=1;" edge="1" parent="1" source="INuKn2RdXTmOjSMa2KZv-1" target="INuKn2RdXTmOjSMa2KZv-2">
          <mxGeometry relative="1" as="geometry" />
        </mxCell>
        <mxCell id="INuKn2RdXTmOjSMa2KZv-5" style="edgeStyle=orthogonalEdgeStyle;rounded=0;orthogonalLoop=1;jettySize=auto;html=1;exitX=1;exitY=0;exitDx=0;exitDy=0;entryX=0.5;entryY=0;entryDx=0;entryDy=0;" edge="1" parent="1" source="INuKn2RdXTmOjSMa2KZv-1" target="INuKn2RdXTmOjSMa2KZv-2">
          <mxGeometry relative="1" as="geometry" />
        </mxCell>
        <mxCell id="INuKn2RdXTmOjSMa2KZv-1" value="" style="ellipse;whiteSpace=wrap;html=1;aspect=fixed;" vertex="1" parent="1">
          <mxGeometry x="240" y="370" width="110" height="110" as="geometry" />
        </mxCell>
        <mxCell id="INuKn2RdXTmOjSMa2KZv-2" value="" style="rounded=1;whiteSpace=wrap;html=1;" vertex="1" parent="1">
          <mxGeometry x="450" y="395" width="120" height="60" as="geometry" />
        </mxCell>
      </root>
    </mxGraphModel>
  </diagram>
</mxfile>
